# Blender v2.82 (sub 7) OBJ File: 'nieb_benches.blend'
# www.blender.org
g rail
v 4.077178 6.075300 4.603730
v 3.680540 6.471937 4.603730
v 3.283903 6.075300 4.603730
v 3.680540 5.678663 4.603730
v 4.568451 0.290613 4.640192
v 4.568451 4.317919 4.640193
v 4.327507 0.290612 5.057518
v 4.327507 4.317919 5.057519
v 3.845619 0.290612 5.057518
v 3.845619 4.317919 5.057519
v 3.604676 0.290613 4.640192
v 3.604676 4.317919 4.640193
v 3.845619 0.290613 4.222865
v 3.845619 4.317919 4.222866
v 4.327507 0.290613 4.222865
v 4.327507 4.317919 4.222866
v 3.840936 6.794612 4.640193
v 3.637262 6.665884 5.057519
v 3.229914 6.408430 5.057519
v 3.026241 6.279702 4.640193
v 3.229914 6.408430 4.222866
v 3.637262 6.665884 4.222866
v 1.892070 8.487154 4.640193
v 1.793240 8.267410 5.057519
v 1.595581 7.827928 5.057519
v 1.496752 7.608184 4.640193
v 1.595581 7.827928 4.222866
v 1.793240 8.267411 4.222866
v -4.568451 4.317919 4.640193
v -4.568451 0.290613 4.640192
v -4.327507 4.317919 5.057519
v -4.327507 0.290612 5.057518
v -3.845619 4.317919 5.057519
v -3.845619 0.290612 5.057518
v -3.604676 4.317919 4.640193
v -3.604676 0.290613 4.640192
v -3.845619 4.317919 4.222866
v -3.845619 0.290613 4.222865
v -4.327507 4.317919 4.222866
v -4.327507 0.290613 4.222865
v -3.838624 6.801726 4.640193
v -3.635743 6.671752 5.057519
v -3.229981 6.411806 5.057519
v -3.027100 6.281832 4.640193
v -3.229981 6.411806 4.222866
v -3.635743 6.671752 4.222866
v 0.000039 8.626389 -4.203336
v -0.000824 8.146688 -4.239457
v -0.001121 7.936135 -4.640187
v -0.000824 8.146688 -5.040917
v 0.000039 8.626390 -5.077039
v 0.000603 8.899786 -4.640186
v -1.883392 8.491609 4.640193
v -1.786553 8.270983 5.057519
v -1.592874 7.829731 5.057519
v -1.496035 7.609105 4.640193
v -1.592874 7.829731 4.222866
v -1.786553 8.270984 4.222866
v 3.840936 6.794615 -4.640187
v 4.568451 4.317922 -4.640187
v 4.568451 0.290615 -4.640188
v 4.327507 4.317922 -5.057513
v 4.327507 0.290616 -5.057514
v 3.845619 4.317922 -5.057513
v 3.845619 0.290616 -5.057514
v 3.604676 4.317922 -4.640187
v 3.604676 0.290615 -4.640188
v 3.845619 4.317922 -4.222860
v 3.845619 0.290615 -4.222861
v 4.327507 4.317922 -4.222860
v 4.327507 0.290615 -4.222861
v 3.637262 6.665887 -5.057513
v 3.229914 6.408432 -5.057513
v 3.026241 6.279705 -4.640187
v 3.229914 6.408432 -4.222860
v 3.637262 6.665887 -4.222860
v 1.892070 8.487158 -4.640187
v 1.793240 8.267414 -5.057513
v 1.595581 7.827930 -5.057513
v 1.496752 7.608187 -4.640187
v 1.595581 7.827930 -4.222860
v 1.793240 8.267413 -4.222860
v -4.568451 0.290615 -4.640188
v -4.568451 4.317922 -4.640187
v -4.327507 0.290616 -5.057514
v -4.327507 4.317922 -5.057513
v -3.845619 0.290616 -5.057514
v -3.845619 4.317922 -5.057513
v -3.604676 0.290615 -4.640188
v -3.604676 4.317922 -4.640187
v -3.845619 0.290615 -4.222861
v -3.845619 4.317922 -4.222860
v -4.327507 0.290615 -4.222861
v -4.327507 4.317922 -4.222860
v -3.838624 6.801729 -4.640187
v -3.635743 6.671755 -5.057513
v -3.229981 6.411808 -5.057513
v -3.027100 6.281835 -4.640187
v -3.229981 6.411808 -4.222860
v -3.635743 6.671755 -4.222860
v -1.883392 8.491612 -4.640187
v -1.786553 8.270987 -5.057513
v -1.592874 7.829733 -5.057513
v -1.496035 7.609107 -4.640187
v -1.592874 7.829733 -4.222860
v -1.786553 8.270986 -4.222860
v -3.680540 5.678664 -4.472186
v -3.680540 5.678663 4.603730
v -4.077178 6.075302 -4.472186
v -4.077178 6.075300 4.603730
v -3.680540 6.471939 -4.472186
v -3.680540 6.471937 4.603730
v -3.283903 6.075302 -4.472186
v -3.283903 6.075300 4.603730
v 4.077178 6.075302 -4.472186
v 3.680540 6.471939 -4.472186
v 3.283903 6.075302 -4.472186
v 3.680540 5.678664 -4.472186
v 0.000603 8.899782 4.640194
v 0.000039 8.626385 5.077044
v -0.000824 8.146684 5.040923
v -0.001121 7.936132 4.640193
v -0.000824 8.146686 4.239463
v 0.000039 8.626387 4.203341
vt 0.709460 0.999192
vt 0.612614 0.661374
vt 0.612614 0.999191
vt 0.396419 0.999843
vt 0.496935 0.797807
vt 0.496935 0.999767
vt 0.598531 0.797583
vt 0.598531 0.999687
vt 0.000000 1.000000
vt 0.101177 0.798019
vt 0.101177 0.999976
vt 0.201693 0.798367
vt 0.201693 0.999948
vt 0.299938 0.798557
vt 0.299938 0.999906
vt 0.299938 0.683025
vt 0.396419 0.798269
vt 0.496935 0.682942
vt 0.101177 0.683104
vt 0.000000 0.797897
vt 0.000000 0.683431
vt 0.201693 0.683005
vt 0.396419 0.579860
vt 0.299938 0.579737
vt 0.496935 0.580162
vt 0.396419 0.682982
vt 0.598531 0.580736
vt 0.000000 0.580907
vt 0.101177 0.580314
vt 0.201693 0.579872
vt 0.299938 0.202163
vt 0.396419 0.000006
vt 0.396419 0.202390
vt 0.396419 0.499277
vt 0.496935 0.499507
vt 0.598531 0.500139
vt 0.101177 0.499641
vt 0.000000 0.500282
vt 0.201693 0.499285
vt 0.299938 0.499201
vt 0.496935 0.419282
vt 0.396419 0.419304
vt 0.598531 0.419915
vt 0.000000 0.420083
vt 0.101177 0.419433
vt 0.201693 0.419313
vt 0.496935 0.202874
vt 0.396419 0.314876
vt 0.496935 0.000032
vt 0.598531 0.000067
vt 0.598531 0.203149
vt 0.000000 0.203436
vt 0.101177 0.000248
vt 0.101177 0.203066
vt 0.201693 0.000113
vt 0.201693 0.202476
vt 0.299938 0.000002
vt 0.299938 0.314748
vt 0.496935 0.315275
vt 0.101177 0.315430
vt 0.201693 0.314890
vt 0.598531 0.316249
vt 0.000000 0.316427
vt 0.299938 0.419364
vt 0.396419 0.314876
vt 0.496935 0.202874
vt 0.396419 0.202390
vt 0.496935 0.580162
vt 0.396419 0.682982
vt 0.496935 0.682942
vt 0.598531 0.419915
vt 0.496935 0.499507
vt 0.598531 0.500139
vt 0.101177 0.499641
vt 0.000000 0.420083
vt 0.000000 0.500282
vt 0.201693 0.499285
vt 0.101177 0.419433
vt 0.299938 0.499201
vt 0.201693 0.419313
vt 0.496935 0.797807
vt 0.396419 0.798269
vt 0.496935 0.999767
vt 0.598531 0.999687
vt 0.598531 0.797583
vt 0.000000 0.797897
vt 0.101177 0.999976
vt 0.101177 0.798019
vt 0.201693 0.999948
vt 0.201693 0.798367
vt 0.299938 0.999906
vt 0.299938 0.798557
vt 0.299938 0.683025
vt 0.101177 0.683104
vt 0.201693 0.683005
vt 0.396419 0.579860
vt 0.598531 0.580736
vt 0.598531 0.683239
vt 0.000000 0.580907
vt 0.000000 0.683431
vt 0.101177 0.580314
vt 0.201693 0.579872
vt 0.299938 0.000002
vt 0.396419 0.000006
vt 0.396419 0.999843
vt 0.396419 0.499277
vt 0.496935 0.419282
vt 0.496935 0.000032
vt 0.598531 0.203149
vt 0.598531 0.000067
vt 0.000000 0.000391
vt 0.101177 0.203066
vt 0.101177 0.000248
vt 0.201693 0.202476
vt 0.201693 0.000114
vt 0.299938 0.202163
vt 0.299938 0.314748
vt 0.496935 0.315275
vt 0.101177 0.315430
vt 0.000000 0.203436
vt 0.000000 0.316427
vt 0.201693 0.314890
vt 0.396419 0.419304
vt 0.299938 0.419364
vt 0.299938 0.579737
vt 0.903153 0.999192
vt 0.806307 0.661375
vt 0.806307 0.999192
vt 0.709460 0.661375
vt 1.000000 0.999192
vt 0.903153 0.661375
vt 0.806307 0.999192
vt 0.903153 0.661375
vt 0.903153 0.999192
vt 0.709460 0.999192
vt 0.806307 0.661375
vt 0.612614 0.999191
vt 0.709460 0.661375
vt 1.000000 0.661375
vt 1.000000 0.999192
vt 0.598531 0.683239
vt 0.000000 0.000391
vt 0.000000 1.000000
vt 0.598531 0.316249
vt 1.000000 0.661375
vt 0.612614 0.661374
vn 1.0000 0.0000 0.0000
vn 0.0000 -1.0000 -0.0000
vn 0.5000 -0.0000 0.8660
vn -0.4718 -0.0646 0.8793
vn -0.5000 -0.0000 0.8660
vn -0.9889 -0.1484 0.0018
vn -1.0000 -0.0000 0.0000
vn -0.4734 -0.0652 -0.8784
vn -0.5000 0.0000 -0.8660
vn 0.5183 0.0788 -0.8515
vn 0.5000 0.0000 -0.8660
vn 0.9905 0.1378 0.0022
vn 0.8403 0.5422 0.0016
vn 0.5312 0.0657 0.8447
vn -0.3751 -0.2337 0.8970
vn -0.3775 -0.2347 -0.8958
vn -0.8395 -0.5433 0.0016
vn 0.4563 0.3004 -0.8376
vn 0.2463 0.4778 0.8432
vn 0.4482 0.8939 -0.0017
vn -0.1957 -0.4076 0.8919
vn 0.4829 0.3204 0.8149
vn -0.4449 -0.8956 0.0015
vn -0.1963 -0.4101 -0.8907
vn 0.2470 0.4805 -0.8415
vn -0.9903 0.1386 0.0012
vn -0.5168 0.0781 0.8526
vn -0.0197 0.5017 0.8648
vn -0.0008 -0.5203 0.8540
vn 0.0011 -1.0000 0.0027
vn -0.0057 -0.5170 -0.8560
vn -0.0060 0.4841 -0.8750
vn 0.0034 1.0000 -0.0019
vn 0.1731 -0.4011 0.8995
vn -0.2601 0.5135 0.8177
vn 0.4472 -0.8945 0.0026
vn 0.2070 -0.3831 -0.9002
vn -0.2606 0.5104 -0.8195
vn 0.4599 -0.0751 0.8848
vn -0.4641 0.3255 0.8238
vn 0.9891 -0.1475 -0.0011
vn 0.4735 -0.0652 -0.8784
vn -0.5253 0.0686 -0.8481
vn -0.8414 0.5405 0.0033
vn 0.3643 -0.2131 0.9066
vn 0.3547 -0.2508 -0.9007
vn -0.4769 0.2854 -0.8313
vn 0.8421 -0.5393 0.0023
vn -0.4415 0.8973 0.0024
vn -0.4536 0.2996 -0.8394
vn 0.4609 -0.0753 -0.8843
vn -0.5397 0.0847 -0.8376
vn -0.2051 -0.3835 -0.9005
vn 0.4886 0.3142 -0.8140
vn -0.3455 -0.2426 -0.9065
vn 0.4495 -0.8933 0.0004
vn -0.0002 -0.4828 -0.8757
vn -0.0022 -1.0000 -0.0022
vn -0.0174 -0.5084 0.8609
vn -0.0209 0.4957 0.8682
vn 0.1876 -0.3734 0.9085
vn -0.0024 1.0000 0.0007
vn -0.2537 0.5122 0.8205
vn -0.4598 -0.0754 -0.8848
vn 0.5406 0.0801 -0.8374
vn -0.9890 -0.1478 0.0011
vn -0.4598 -0.0773 0.8847
vn 0.5363 0.0714 0.8410
vn 0.9909 0.1348 -0.0020
vn 0.8411 0.5409 -0.0030
vn -0.3551 -0.2506 0.9006
vn 0.4769 0.2850 0.8315
vn 0.2329 0.5068 -0.8300
vn -0.4451 -0.8955 0.0017
vn -0.8395 -0.5434 -0.0014
vn -0.1727 -0.4053 0.8977
vn 0.2688 0.4839 0.8328
vn 0.0002 0.4865 -0.8737
vn 0.1829 -0.3771 -0.9079
vn 0.9890 -0.1481 -0.0019
vn 0.4736 -0.0652 0.8783
vn -0.5185 0.0789 0.8514
vn -0.9905 0.1377 -0.0021
vn -0.8404 0.5419 0.0031
vn 0.3746 -0.2338 -0.8972
vn 0.3771 -0.2348 0.8959
vn 0.8405 -0.5418 0.0027
vn -0.4562 0.3007 0.8375
vn -0.2457 0.4785 -0.8430
vn -0.4456 0.8952 0.0025
vn 0.4436 0.8962 0.0023
vn 0.0000 1.0000 0.0000
s 1
f 113/1/1 108/2/2 107/3/2
f 7/4/3 10/5/4 9/6/5
f 9/6/5 12/7/6 11/8/7
f 11/9/7 14/10/8 13/11/9
f 13/11/9 16/12/10 15/13/11
f 15/13/11 6/14/12 5/15/1
f 17/16/13 8/17/14 6/14/12
f 19/18/15 12/7/6 10/5/4
f 21/19/16 12/20/6 20/21/17
f 22/22/18 14/10/8 21/19/16
f 17/16/13 16/12/10 22/22/18
f 24/23/19 17/16/13 23/24/20
f 25/25/21 18/26/22 24/23/19
f 26/27/23 19/18/15 25/25/21
f 26/28/23 21/19/16 20/21/17
f 27/29/24 22/22/18 21/19/16
f 28/30/25 17/16/13 22/22/18
f 29/31/26 32/32/5 31/33/27
f 25/25/21 120/34/28 121/35/29
f 26/27/23 121/35/29 122/36/30
f 123/37/31 26/28/23 122/38/30
f 124/39/32 27/29/24 123/37/31
f 119/40/33 28/30/25 124/39/32
f 55/41/34 120/34/28 54/42/35
f 56/43/36 121/35/29 55/41/34
f 56/44/36 123/37/31 122/38/30
f 57/45/37 124/39/32 123/37/31
f 58/46/38 119/40/33 124/39/32
f 24/23/19 119/40/33 120/34/28
f 33/47/39 42/48/40 31/33/27
f 31/33/27 34/49/3 33/47/39
f 33/47/39 36/50/1 35/51/41
f 35/52/41 38/53/11 37/54/42
f 37/54/42 40/55/9 39/56/43
f 39/56/43 30/57/7 29/31/26
f 31/33/27 41/58/44 29/31/26
f 35/51/41 43/59/45 33/47/39
f 45/60/46 35/52/41 37/54/42
f 46/61/47 37/54/42 39/56/43
f 41/58/44 39/56/43 29/31/26
f 54/42/35 41/58/44 42/48/40
f 55/41/34 42/48/40 43/59/45
f 56/43/36 43/59/45 44/62/48
f 45/60/46 56/44/36 44/63/48
f 46/61/47 57/45/37 45/60/46
f 41/58/44 58/46/38 46/61/47
f 54/42/35 119/40/33 53/64/49
f 96/65/50 88/66/51 86/67/52
f 79/68/53 72/69/54 73/70/55
f 104/71/56 50/72/57 49/73/58
f 48/74/59 104/75/56 49/76/58
f 47/77/60 105/78/61 48/74/59
f 52/79/62 106/80/63 47/77/60
f 5/15/1 8/17/14 7/4/3
f 64/81/64 72/69/54 62/82/65
f 62/82/65 65/83/9 64/81/64
f 64/81/64 67/84/7 66/85/66
f 66/86/66 69/87/5 68/88/67
f 68/88/67 71/89/3 70/90/68
f 70/90/68 61/91/1 60/92/69
f 62/82/65 59/93/70 60/92/69
f 66/85/66 73/70/55 64/81/64
f 75/94/71 66/86/66 68/88/67
f 76/95/72 68/88/67 70/90/68
f 59/93/70 70/90/68 60/92/69
f 78/96/73 59/93/70 72/69/54
f 80/97/74 73/70/55 74/98/75
f 75/94/71 80/99/74 74/100/75
f 76/95/72 81/101/76 75/94/71
f 59/93/70 82/102/77 76/95/72
f 83/103/7 86/67/52 85/104/9
f 60/92/69 63/105/11 62/82/65
f 52/79/62 78/96/73 51/106/78
f 51/106/78 79/68/53 50/72/57
f 50/72/57 80/97/74 49/73/58
f 48/74/59 80/99/74 81/101/76
f 47/77/60 81/101/76 82/102/77
f 103/107/79 51/106/78 50/72/57
f 85/104/9 88/66/51 87/108/11
f 87/108/11 90/109/80 89/110/1
f 89/111/1 92/112/81 91/113/3
f 91/113/3 94/114/82 93/115/5
f 93/115/5 84/116/83 83/103/7
f 95/117/84 86/67/52 84/116/83
f 97/118/85 90/109/80 88/66/51
f 99/119/86 90/120/80 98/121/87
f 100/122/88 92/112/81 99/119/86
f 95/117/84 94/114/82 100/122/88
f 102/123/89 95/117/84 101/124/90
f 103/107/79 96/65/50 102/123/89
f 104/71/56 97/118/85 103/107/79
f 104/75/56 99/119/86 98/121/87
f 105/78/61 100/122/88 99/119/86
f 106/80/63 95/117/84 100/122/88
f 102/123/89 52/79/62 51/106/78
f 52/79/62 82/102/77 77/125/91
f 109/126/7 112/127/92 111/128/92
f 113/1/1 112/127/92 114/129/1
f 107/130/2 110/131/7 109/126/7
f 116/132/92 1/133/1 115/134/1
f 117/135/7 2/136/92 116/132/92
f 118/137/2 3/138/7 117/135/7
f 115/134/1 4/139/2 118/140/2
f 18/26/22 10/5/4 8/17/14
f 113/1/1 114/129/1 108/2/2
f 7/4/3 8/17/14 10/5/4
f 9/6/5 10/5/4 12/7/6
f 11/9/7 12/20/6 14/10/8
f 13/11/9 14/10/8 16/12/10
f 15/13/11 16/12/10 6/14/12
f 17/16/13 18/26/22 8/17/14
f 19/18/15 20/141/17 12/7/6
f 21/19/16 14/10/8 12/20/6
f 22/22/18 16/12/10 14/10/8
f 17/16/13 6/14/12 16/12/10
f 24/23/19 18/26/22 17/16/13
f 25/25/21 19/18/15 18/26/22
f 26/27/23 20/141/17 19/18/15
f 26/28/23 27/29/24 21/19/16
f 27/29/24 28/30/25 22/22/18
f 28/30/25 23/24/20 17/16/13
f 29/31/26 30/57/7 32/32/5
f 25/25/21 24/23/19 120/34/28
f 26/27/23 25/25/21 121/35/29
f 123/37/31 27/29/24 26/28/23
f 124/39/32 28/30/25 27/29/24
f 119/40/33 23/24/20 28/30/25
f 55/41/34 121/35/29 120/34/28
f 56/43/36 122/36/30 121/35/29
f 56/44/36 57/45/37 123/37/31
f 57/45/37 58/46/38 124/39/32
f 58/46/38 53/64/49 119/40/33
f 24/23/19 23/24/20 119/40/33
f 33/47/39 43/59/45 42/48/40
f 31/33/27 32/32/5 34/49/3
f 33/47/39 34/49/3 36/50/1
f 35/52/41 36/142/1 38/53/11
f 37/54/42 38/53/11 40/55/9
f 39/56/43 40/55/9 30/57/7
f 31/33/27 42/48/40 41/58/44
f 35/51/41 44/62/48 43/59/45
f 45/60/46 44/63/48 35/52/41
f 46/61/47 45/60/46 37/54/42
f 41/58/44 46/61/47 39/56/43
f 54/42/35 53/64/49 41/58/44
f 55/41/34 54/42/35 42/48/40
f 56/43/36 55/41/34 43/59/45
f 45/60/46 57/45/37 56/44/36
f 46/61/47 58/46/38 57/45/37
f 41/58/44 53/64/49 58/46/38
f 54/42/35 120/34/28 119/40/33
f 96/65/50 97/118/85 88/66/51
f 79/68/53 78/96/73 72/69/54
f 104/71/56 103/107/79 50/72/57
f 48/74/59 105/78/61 104/75/56
f 47/77/60 106/80/63 105/78/61
f 52/79/62 101/124/90 106/80/63
f 5/15/1 6/14/12 8/17/14
f 64/81/64 73/70/55 72/69/54
f 62/82/65 63/105/11 65/83/9
f 64/81/64 65/83/9 67/84/7
f 66/86/66 67/143/7 69/87/5
f 68/88/67 69/87/5 71/89/3
f 70/90/68 71/89/3 61/91/1
f 62/82/65 72/69/54 59/93/70
f 66/85/66 74/98/75 73/70/55
f 75/94/71 74/100/75 66/86/66
f 76/95/72 75/94/71 68/88/67
f 59/93/70 76/95/72 70/90/68
f 78/96/73 77/125/91 59/93/70
f 80/97/74 79/68/53 73/70/55
f 75/94/71 81/101/76 80/99/74
f 76/95/72 82/102/77 81/101/76
f 59/93/70 77/125/91 82/102/77
f 83/103/7 84/116/83 86/67/52
f 60/92/69 61/91/1 63/105/11
f 52/79/62 77/125/91 78/96/73
f 51/106/78 78/96/73 79/68/53
f 50/72/57 79/68/53 80/97/74
f 48/74/59 49/76/58 80/99/74
f 47/77/60 48/74/59 81/101/76
f 103/107/79 102/123/89 51/106/78
f 85/104/9 86/67/52 88/66/51
f 87/108/11 88/66/51 90/109/80
f 89/111/1 90/120/80 92/112/81
f 91/113/3 92/112/81 94/114/82
f 93/115/5 94/114/82 84/116/83
f 95/117/84 96/65/50 86/67/52
f 97/118/85 98/144/87 90/109/80
f 99/119/86 92/112/81 90/120/80
f 100/122/88 94/114/82 92/112/81
f 95/117/84 84/116/83 94/114/82
f 102/123/89 96/65/50 95/117/84
f 103/107/79 97/118/85 96/65/50
f 104/71/56 98/144/87 97/118/85
f 104/75/56 105/78/61 99/119/86
f 105/78/61 106/80/63 100/122/88
f 106/80/63 101/124/90 95/117/84
f 102/123/89 101/124/90 52/79/62
f 52/79/62 47/77/60 82/102/77
f 109/126/7 110/131/7 112/127/92
f 113/1/1 111/128/92 112/127/92
f 107/130/2 108/145/2 110/131/7
f 116/132/92 2/136/92 1/133/1
f 117/135/7 3/138/7 2/136/92
f 118/137/2 4/146/2 3/138/7
f 115/134/1 1/133/1 4/139/2
f 18/26/22 19/18/15 10/5/4
g base
v 4.762730 0.290612 5.285610
v 4.762730 -0.000002 5.285610
v 4.762730 0.290613 3.994770
v 2.509743 -0.000001 3.994770
v -4.762730 -0.000001 3.994770
v -2.509743 0.290613 3.994770
v -4.762730 0.000001 -3.994766
v -2.509743 0.000001 -3.994766
v 4.762730 0.000002 -5.285606
v 2.509743 0.000002 -5.285606
v -4.762730 0.290616 -5.285606
v -2.509743 0.290615 -3.994766
v 4.762730 0.290616 -5.285606
v 2.509743 0.290612 5.285610
v -4.762730 0.290613 3.994770
v -2.509743 0.290612 5.285610
v 2.509743 0.290616 -5.285606
v 2.509743 0.290615 -3.994766
v 2.509743 0.000001 -3.994766
v 4.762730 0.000001 -3.994766
v 4.762730 0.290615 -3.994766
v -4.762730 0.290615 -3.994766
v -4.762730 0.000002 -5.285606
v -2.509743 0.290616 -5.285606
v -2.509743 0.000002 -5.285606
v -2.509743 -0.000001 3.994770
v 4.762730 -0.000001 3.994770
v 2.509743 0.290613 3.994770
v -2.509743 -0.000002 5.285610
v -4.762730 0.290612 5.285610
v -4.762730 -0.000002 5.285610
v 2.509743 -0.000002 5.285610
v 3.546689 6.580459 3.901947
v 1.473722 6.252079 -3.898045
v 1.473722 6.252078 3.901947
v 3.546689 6.580460 -3.898045
v -3.546689 6.580460 -3.898045
v -3.546689 6.580459 3.901947
v -3.996014 6.413530 3.901947
v -3.996014 6.413532 -3.898045
v -4.182131 5.690972 -3.898045
v 3.996014 6.413530 3.901947
v 3.996014 6.413532 -3.898045
v 3.543873 6.499972 -3.898046
v 3.937804 6.353721 -3.898046
v 4.121210 5.695848 -3.898045
v 4.121210 5.695847 3.901947
v -3.543873 6.499970 3.901947
v -3.543873 6.499972 -3.898046
v -3.937804 6.353720 3.901947
v -3.937804 6.353721 -3.898046
v -4.121210 5.695848 -3.898045
v -1.472552 6.171588 3.901947
v 4.182131 5.690970 3.901947
v -4.182131 5.690970 3.901947
v 3.543873 6.499970 3.901947
v 3.937804 6.353720 3.901947
v 1.472552 6.171588 3.901947
v -4.121210 5.695847 3.901947
v -1.473722 6.252078 3.901947
v 1.472552 6.171590 -3.898046
v -1.473722 6.252079 -3.898045
v -1.472552 6.171590 -3.898046
v 4.182131 5.690972 -3.898045
vt 0.101076 0.653285
vt 0.148175 0.757231
vt 0.101076 0.757231
vt 0.207229 0.757308
vt 0.254328 0.653362
vt 0.254328 0.757308
vt 0.148175 0.757231
vt 0.101076 0.653285
vt 0.101076 0.757231
vt 0.254328 0.653362
vt 0.207229 0.757308
vt 0.254328 0.757308
vt 0.148175 0.653285
vt 0.101076 0.757231
vt 0.101076 0.653285
vt 0.254328 0.757308
vt 0.207229 0.653362
vt 0.254328 0.653362
vt 0.101076 0.757231
vt 0.148175 0.653285
vt 0.101076 0.653285
vt 0.207229 0.653362
vt 0.254328 0.757308
vt 0.254328 0.653362
vt 0.281489 0.994135
vt 0.072285 0.812713
vt 0.281489 0.812713
vt 0.072285 0.994135
vt 0.281489 0.812713
vt 0.072285 0.812713
vt 0.281489 0.994135
vt 0.072285 0.812713
vt 0.281489 0.812713
vt 0.072285 0.994135
vt 0.281489 0.812713
vt 0.072285 0.812713
vt 0.037152 0.617206
vt 0.084251 0.798628
vt 0.084251 0.617206
vt 0.317598 0.795818
vt 0.270498 0.614395
vt 0.270498 0.795818
vt 0.317598 0.614395
vt 0.270498 0.795818
vt 0.270498 0.614395
vt 0.037152 0.798628
vt 0.084251 0.617206
vt 0.084251 0.798628
vt 0.317598 0.795818
vt 0.270498 0.614395
vt 0.270498 0.795818
vt 0.317598 0.614395
vt 0.270498 0.795818
vt 0.270498 0.614395
vt 0.037152 0.617206
vt 0.084251 0.798628
vt 0.084251 0.617206
vt 0.037152 0.798628
vt 0.084251 0.617206
vt 0.084251 0.798628
vt 0.978923 0.522628
vt 0.019543 0.537728
vt 0.019542 0.522631
vt 0.978924 0.085558
vt 0.019543 0.070458
vt 0.978923 0.070463
vt 0.978921 0.041685
vt 0.019551 0.008689
vt 0.978917 0.008698
vt 0.978924 0.394266
vt 0.019539 0.469193
vt 0.019538 0.394266
vt 0.353247 0.745308
vt 1.000000 0.866788
vt 0.353247 0.866788
vt 0.978920 0.566501
vt 0.019551 0.599497
vt 0.019546 0.566508
vt 0.019540 0.138993
vt 0.978925 0.213921
vt 0.019538 0.213920
vt 0.353247 0.650870
vt 1.000000 0.658841
vt 0.353247 0.658841
vt 0.353247 0.612096
vt 1.000000 0.632381
vt 0.353247 0.632381
vt 1.000000 0.745308
vt 0.353247 0.694838
vt 1.000000 0.694838
vt 1.000000 0.961226
vt 0.353247 0.953254
vt 1.000000 0.953254
vt 1.000000 1.000000
vt 0.353247 0.979715
vt 1.000000 0.979715
vt 1.000000 0.917258
vt 0.353247 0.917258
vt 0.148175 0.653285
vt 0.207229 0.653362
vt 0.148175 0.653285
vt 0.207229 0.653362
vt 0.148175 0.757231
vt 0.207229 0.757308
vt 0.148175 0.757231
vt 0.207229 0.757308
vt 0.072285 0.994135
vt 0.281489 0.994135
vt 0.072285 0.994135
vt 0.281489 0.994135
vt 0.037152 0.798628
vt 0.317598 0.614395
vt 0.317598 0.795818
vt 0.037152 0.617206
vt 0.317598 0.614395
vt 0.317598 0.795818
vt 0.037152 0.798628
vt 0.037152 0.617206
vt 0.978922 0.537724
vt 0.019543 0.085555
vt 0.019546 0.041678
vt 0.978924 0.469191
vt 0.978917 0.599490
vt 0.978925 0.138995
vt 1.000000 0.650870
vt 1.000000 0.612096
vt 0.353247 0.961226
vt 0.353247 1.000000
vn 0.5774 0.5774 0.5774
vn 0.7071 0.0000 -0.7071
vn 0.5774 0.5774 -0.5774
vn -0.5774 0.5774 0.5774
vn -0.7071 0.0000 -0.7071
vn -0.7071 0.0000 0.7071
vn -0.5774 0.5774 -0.5774
vn 0.7071 0.0000 0.7071
vn 0.0991 0.9951 0.0000
vn 0.7428 0.6695 0.0000
vn -0.0991 0.9951 0.0000
vn -0.7428 0.6695 0.0000
vn -0.9684 0.2494 0.0000
vn -0.0785 0.9969 0.0000
vn 0.0785 -0.9969 -0.0000
vn -0.0785 -0.9969 -0.0000
vn 0.9684 0.2494 0.0000
vn 0.0785 0.9969 0.0000
vn -0.7360 -0.6769 -0.0000
vn -0.0990 -0.9951 -0.0000
vn -0.9633 -0.2685 -0.0000
vn 0.7360 -0.6769 -0.0000
vn 0.0990 -0.9951 -0.0000
vn 0.9633 -0.2685 -0.0000
s 1
f 125/147/93 151/148/94 127/149/95
f 138/150/96 128/151/97 156/152/98
f 129/153/97 154/154/96 139/155/99
f 150/156/94 140/157/93 153/158/100
f 147/159/97 146/160/96 135/161/99
f 149/162/94 136/163/93 132/164/100
f 145/165/93 133/166/94 137/167/95
f 142/168/96 134/169/97 143/170/98
f 135/171/99 136/172/93 148/173/95
f 145/174/93 141/175/99 142/176/96
f 125/177/93 152/178/99 138/179/96
f 139/180/99 140/181/93 130/182/95
f 141/183/99 133/184/94 134/185/97
f 143/186/98 145/187/93 142/188/96
f 131/189/98 136/190/93 146/191/96
f 135/192/99 149/193/94 147/194/97
f 150/195/94 139/196/99 130/197/95
f 151/198/94 152/199/99 127/200/95
f 140/201/93 155/202/98 153/203/100
f 125/204/93 156/205/98 126/206/100
f 157/207/101 167/208/102 160/209/101
f 162/210/103 164/211/104 163/212/104
f 163/213/104 165/214/105 179/215/105
f 159/216/106 160/217/101 158/218/106
f 185/219/107 177/220/108 187/221/108
f 166/222/102 188/223/109 167/224/102
f 161/225/103 184/226/110 186/227/110
f 169/228/111 180/229/112 168/230/112
f 170/231/113 181/232/111 169/233/111
f 182/234/107 168/235/112 180/236/112
f 174/237/114 173/238/115 172/239/115
f 183/240/116 175/241/114 174/242/114
f 187/221/108 172/243/115 173/244/115
f 184/226/110 158/218/106 186/227/110
f 125/147/93 126/245/100 151/148/94
f 138/150/96 152/246/99 128/151/97
f 129/153/97 155/247/98 154/154/96
f 150/156/94 130/248/95 140/157/93
f 147/159/97 131/249/98 146/160/96
f 149/162/94 148/250/95 136/163/93
f 145/165/93 144/251/100 133/166/94
f 142/168/96 141/252/99 134/169/97
f 135/171/99 146/253/96 136/172/93
f 145/174/93 137/254/95 141/175/99
f 125/177/93 127/255/95 152/178/99
f 139/180/99 154/256/96 140/181/93
f 141/183/99 137/257/95 133/184/94
f 143/186/98 144/258/100 145/187/93
f 131/189/98 132/259/100 136/190/93
f 135/192/99 148/260/95 149/193/94
f 150/195/94 129/261/97 139/196/99
f 151/198/94 128/262/97 152/199/99
f 140/201/93 154/263/96 155/202/98
f 125/204/93 138/264/96 156/205/98
f 157/207/101 166/265/102 167/208/102
f 162/210/103 161/266/103 164/211/104
f 163/213/104 164/267/104 165/214/105
f 159/216/106 157/268/101 160/217/101
f 185/219/107 182/234/107 177/220/108
f 166/222/102 178/269/109 188/223/109
f 161/225/103 162/270/103 184/226/110
f 169/228/111 181/271/111 180/229/112
f 170/231/113 171/272/113 181/232/111
f 182/234/107 185/219/107 168/235/112
f 174/237/114 175/273/114 173/238/115
f 183/240/116 176/274/116 175/241/114
f 187/221/108 177/220/108 172/243/115
f 184/226/110 159/216/106 158/218/106
